<svg id="Grupo_516" data-name="Grupo 516" xmlns="http://www.w3.org/2000/svg" width="197.075" height="56.737" viewBox="0 0 197.075 56.737">
  <path id="Trazado_1" data-name="Trazado 1" d="M5935.938-6417.825a10.642,10.642,0,0,1-6.81-2.009,1.268,1.268,0,0,1-.1-1.945l2.125-1.971a1.251,1.251,0,0,1,1.594-.1,4.909,4.909,0,0,0,3.19.973c2.96,0,4.875-1.632,4.875-4.976v-17.83a1.422,1.422,0,0,1,1.422-1.422h3.205a1.422,1.422,0,0,1,1.422,1.422v18.074C5946.862-6421.21,5941.683-6417.825,5935.938-6417.825Z" transform="translate(-5857.242 6461.095)" fill="#fff"/>
  <path id="Trazado_2" data-name="Trazado 2" d="M6037.407-6417.825c-6.354,0-11.4-4.038-11.4-10.2v-17.753a1.335,1.335,0,0,1,1.335-1.335h3.379a1.335,1.335,0,0,1,1.335,1.335v17.549a4.957,4.957,0,0,0,5.353,5.343c3.264,0,5.4-2,5.4-5.343v-17.549a1.335,1.335,0,0,1,1.335-1.335h3.335a1.335,1.335,0,0,1,1.335,1.335v17.753C6048.81-6421.862,6043.761-6417.825,6037.407-6417.825Z" transform="translate(-5930.03 6461.095)" fill="#fff"/>
  <path id="Trazado_3" data-name="Trazado 3" d="M6144.616-6418.549c-4.307,0-7.664-.787-10.54-3.147a.917.917,0,0,1-.043-1.374l2.447-2.293a1.162,1.162,0,0,1,1.487-.069,11.233,11.233,0,0,0,6.736,1.826c3.568,0,5.483-1.265,5.483-3.59a3.117,3.117,0,0,0-.957-2.446,4.774,4.774,0,0,0-2.742-1.021l-3.742-.489a10.861,10.861,0,0,1-6.006-2.407,7.4,7.4,0,0,1-2.22-5.709c0-5.181,4.09-8.811,10.792-8.811,3.831,0,6.714.789,9.185,2.694a.922.922,0,0,1,.058,1.4l-2.343,2.171a1.166,1.166,0,0,1-1.459.083,9.589,9.589,0,0,0-5.614-1.416c-3.221,0-4.787,1.672-4.787,3.67a2.709,2.709,0,0,0,.914,2.08,5.5,5.5,0,0,0,2.872,1.143l3.656.489c2.829.367,4.614,1.1,5.919,2.243a7.851,7.851,0,0,1,2.393,6.159C6156.1-6421.73,6151.1-6418.549,6144.616-6418.549Z" transform="translate(-6010.56 6461.82)" fill="#fff"/>
  <path id="Trazado_4" data-name="Trazado 4" d="M6249.869-6442.052v22.74a1.241,1.241,0,0,1-1.24,1.242h-3.567a1.243,1.243,0,0,1-1.242-1.242v-22.74h-6.853a1.241,1.241,0,0,1-1.241-1.242v-2.575a1.241,1.241,0,0,1,1.241-1.241h19.757a1.241,1.241,0,0,1,1.241,1.241v2.575a1.242,1.242,0,0,1-1.241,1.242Z" transform="translate(-6086.785 6461.095)" fill="#fff"/>
  <path id="Trazado_5" data-name="Trazado 5" d="M6355.471-6421.73a11.6,11.6,0,0,1-8.357,3.182,11.7,11.7,0,0,1-8.4-3.182c-3.134-2.937-3.047-6.566-3.047-11.583s-.086-8.647,3.047-11.584a11.7,11.7,0,0,1,8.4-3.182,11.6,11.6,0,0,1,8.357,3.182c3.133,2.937,3.089,6.567,3.089,11.584S6358.6-6424.667,6355.471-6421.73Zm-4.483-19.741a5.186,5.186,0,0,0-3.874-1.549,5.289,5.289,0,0,0-3.916,1.549c-1.176,1.224-1.48,2.57-1.48,8.158s.3,6.933,1.48,8.156a5.29,5.29,0,0,0,3.916,1.551,5.187,5.187,0,0,0,3.874-1.551c1.175-1.224,1.524-2.569,1.524-8.156S6352.163-6440.248,6350.987-6441.472Z" transform="translate(-6161.485 6461.82)" fill="#fff"/>
  <path id="Trazado_6" data-name="Trazado 6" d="M5674.361-6502.487a28.369,28.369,0,0,0-28.368,28.368,28.369,28.369,0,0,0,28.368,28.369,28.369,28.369,0,0,0,28.369-28.369A28.369,28.369,0,0,0,5674.361-6502.487Zm.007,5.918a23.51,23.51,0,0,1,21.73,14.233,4.128,4.128,0,0,1-2.416,5.473,55.374,55.374,0,0,1-19.314,3.45,55.368,55.368,0,0,1-19.852-3.652,3.628,3.628,0,0,1-2.1-4.716A23.494,23.494,0,0,1,5674.368-6496.569Zm-.007,44.592a23.249,23.249,0,0,1-21.918-14.944,2.343,2.343,0,0,1,2.979-2.958,63.339,63.339,0,0,0,18.938,2.875,63.345,63.345,0,0,0,18.939-2.875,2.342,2.342,0,0,1,2.979,2.958A23.248,23.248,0,0,1,5674.361-6451.977Z" transform="translate(-5645.993 6502.487)" fill="#fff"/>
</svg>
